<svg id="remarked" xmlns="http://www.w3.org/2000/svg" viewBox="0 0 302 61"><script xmlns=""/>

	<g>
	<title>Layer 1</title>
		<g stroke="null" id="svg_1">
			<path class="letter" stroke="null" d="m82.275134,40.918724c0.744536,0.164136 1.46017,0.334838 2.144291,0.512106c0.682794,0.181207 1.348545,0.397867 1.998525,0.660485l0,1.41026l-12.821022,0l0,-1.41026c0.714322,-0.321707 1.395816,-0.571195 2.048422,-0.730079c0.647354,-0.164136 1.296021,-0.30989 1.948627,-0.442512l0,-28.906389c-0.846944,-0.164136 -1.59278,-0.349282 -2.24276,-0.559377c-0.651293,-0.212721 -1.235619,-0.430694 -1.75429,-0.659172l0,-1.412886l4.289869,0c1.302586,0 2.728603,-0.064341 4.276738,-0.194337c1.548134,-0.129996 3.051624,-0.195651 4.51966,-0.195651c1.595406,0 3.085764,0.179893 4.469762,0.534428c1.386624,0.358474 2.581537,0.929669 3.589991,1.709645c1.012393,0.779976 1.801561,1.77136 2.371443,2.972838c0.571195,1.204105 0.853509,2.648505 0.853509,4.33714c0,2.375382 -0.626344,4.339766 -1.88166,5.899719c-1.255315,1.559952 -2.959707,2.682645 -5.109238,3.362826c1.395816,2.209932 2.857286,4.402795 4.385724,6.581213c1.527125,2.178418 3.119905,4.339766 4.778339,6.484044l2.653757,1.414199l0,1.215922l-5.932546,0l-1.852772,-1.364302c-0.911298,-1.134511 -1.738533,-2.250638 -2.487008,-3.336565c-0.748449,-1.088553 -1.445713,-2.195488 -2.095693,-3.318181c-0.652606,-1.12138 -1.261881,-2.258517 -1.830449,-3.410098c-0.569882,-1.152894 -1.146329,-2.380634 -1.730654,-3.681908l-4.594506,0l0,12.52689l0.003939,0zm3.312942,-29.396172c-0.781289,0 -1.420765,0.018383 -1.924992,0.049897c-0.50554,0.032827 -0.967748,0.097169 -1.38795,0.193024l0,14.482082l3.509893,0c2.241447,0 4.021998,-0.710382 5.335089,-2.13246c1.31703,-1.420765 1.976202,-3.29192 1.976202,-5.618717c0,-2.385887 -0.699878,-4.145429 -2.097007,-5.274687c-1.397129,-1.131885 -3.19999,-1.69914 -5.411236,-1.69914" id="svg_2"/>
			<path class="letter" stroke="null" d="m124.052442,40.090164c-0.259979,0.554124 -0.66705,1.074109 -1.218549,1.559952c-0.552811,0.487157 -1.187021,0.908659 -1.900043,1.269759c-0.714322,0.355848 -1.496924,0.639475 -2.339928,0.850883c-0.846931,0.210095 -1.707005,0.316455 -2.584163,0.316455c-1.918426,0 -3.607061,-0.300698 -5.068532,-0.903407c-1.464084,-0.597456 -2.682645,-1.462784 -3.656959,-2.58285c-0.97694,-1.12138 -1.714884,-2.462046 -2.219111,-4.021998c-0.502914,-1.557326 -0.755041,-3.312929 -0.755041,-5.264182c0,-4.159873 0.95857,-7.327049 2.876996,-9.50678c1.918413,-2.175792 4.631273,-3.268284 8.141165,-3.268284c1.135811,0 2.257191,0.154945 3.36414,0.463521c1.104297,0.30989 2.089115,0.821995 2.94919,1.536317s1.559952,1.666313 2.097007,2.852034c0.535741,1.187034 0.802299,2.657697 0.802299,4.410673c0,0.554124 -0.024949,1.116127 -0.074846,1.683383c-0.047271,0.568568 -0.135248,1.17653 -0.266558,1.829136l-15.209535,0c0,1.364302 0.169389,2.638 0.513419,3.825035c0.337478,1.189661 0.850883,2.217811 1.533704,3.097582c0.682794,0.877145 1.542882,1.566518 2.584163,2.070745c1.038655,0.504227 2.258517,0.755027 3.655646,0.755027c1.135824,0 2.290031,-0.164136 3.462621,-0.48847c1.171277,-0.32302 2.048422,-0.744523 2.632748,-1.263194l0.680181,0.778663l-0.000013,0zm-8.921141,-19.402235c-1.851445,0 -3.265645,0.626344 -4.239971,1.87772s-1.559952,3.452117 -1.752964,6.606162l10.724015,0c0.028888,-0.294132 0.056463,-0.579073 0.07222,-0.854822c0.01707,-0.273123 0.026262,-0.544933 0.026262,-0.803612c0,-2.078623 -0.392614,-3.737057 -1.171277,-4.972676c-0.779976,-1.232993 -1.999838,-1.852772 -3.658272,-1.852772" id="svg_3"/>
			<path class="letter" stroke="null" d="m167.536769,43.501574l-11.989835,0l0,-1.411573c0.647354,-0.259992 1.296021,-0.477965 1.947314,-0.659172c0.647354,-0.175954 1.311778,-0.347969 1.997212,-0.512106l0,-21.935188l0.194337,-5.704068l-0.389988,0l-1.60591,5.215598l-9.997876,25.006508l-1.26582,0l-9.505467,-25.006508l-1.755603,-5.702755l-0.439886,0l0.049897,6.191225l0,21.936501c0.617153,0.133935 1.235619,0.292819 1.854085,0.48847c0.618479,0.196964 1.233006,0.421502 1.851459,0.682807l0,1.411573l-10.188274,0l0,-1.411573c0.61584,-0.259992 1.257941,-0.493722 1.924992,-0.703817c0.665737,-0.211408 1.340666,-0.386049 2.02216,-0.516045l0,-28.859117c-0.681494,-0.131309 -1.356423,-0.300698 -2.02216,-0.513419c-0.66705,-0.210095 -1.323596,-0.446451 -1.974889,-0.707756l0,-1.411573l9.992624,0l8.482569,22.279218l1.66106,5.019948l0.047271,0l1.655808,-5.119742l8.776701,-22.179423l8.726804,0l0,1.411573c-0.584326,0.261305 -1.188347,0.496348 -1.804187,0.707756c-0.621092,0.212721 -1.252689,0.38211 -1.900043,0.513419l0,28.957599c0.68412,0.128683 1.324909,0.284941 1.924992,0.460895c0.602709,0.181207 1.17653,0.39918 1.730654,0.659172l0,1.411573z" id="svg_4"/>
			<path class="letter" stroke="null" d="m189.081982,37.117325c0,0.715635 0.01707,1.334101 0.049897,1.852772c0.030201,0.519984 0.064341,1.071482 0.095856,1.655808l3.36414,0.487157l0,1.024211c-0.812803,0.421502 -1.71621,0.797046 -2.708907,1.122693c-0.986131,0.321707 -1.936809,0.569882 -2.846782,0.730079l-1.219862,0c-0.32302,-0.744523 -0.519984,-1.565205 -0.585639,-2.460733c-0.066968,-0.892902 -0.114239,-1.879033 -0.14444,-2.951829l-0.246861,0c-0.12737,0.652606 -0.379483,1.311778 -0.753714,1.978828c-0.374231,0.663111 -0.864014,1.259254 -1.46147,1.776612c-0.602709,0.521297 -1.310465,0.944113 -2.121955,1.268446c-0.812803,0.32696 -1.73722,0.487157 -2.777188,0.487157c-1.981455,0 -3.59787,-0.600083 -4.849259,-1.801561c-1.254002,-1.202792 -1.880333,-2.778501 -1.880333,-4.732381c0,-1.492985 0.300698,-2.718099 0.902094,-3.675342c0.602709,-0.962496 1.490358,-1.714897 2.65901,-2.267708c1.167338,-0.556751 2.613051,-0.953304 4.335827,-1.196226c1.724089,-0.242922 3.723927,-0.428068 5.9982,-0.563316c0.129996,-1.39319 0.170702,-2.65507 0.122117,-3.775137c-0.049897,-1.12138 -0.225852,-2.07731 -0.535741,-2.876983c-0.307263,-0.795733 -0.764219,-1.411573 -1.366928,-1.851459c-0.597456,-0.439886 -1.387937,-0.657859 -2.363564,-0.657859c-0.45433,0 -0.965122,0.026262 -1.53763,0.073533c-0.565942,0.051211 -1.127945,0.186459 -1.679444,0.414937l-2.288718,5.851134l-1.272385,0c-0.32302,-0.975627 -0.606648,-1.984081 -0.84957,-3.022736c-0.242922,-1.039968 -0.39918,-2.062866 -0.464834,-3.07132c1.234306,-0.748462 2.613051,-1.331474 4.124419,-1.752977c1.506116,-0.425442 3.190812,-0.636849 5.043583,-0.636849c1.657121,0 2.98203,0.237669 3.973414,0.707756c0.991384,0.468774 1.746411,1.079361 2.267708,1.829136c0.519984,0.747149 0.858762,1.574396 1.021585,2.485682c0.16151,0.909972 0.245548,1.822571 0.245548,2.729917c0,1.94994 -0.039393,3.826348 -0.122117,5.631848c-0.084038,1.800248 -0.126057,3.529589 -0.126057,5.18671m-9.406985,3.948465c0.812803,0 1.528438,-0.164136 2.144278,-0.48847c0.617153,-0.32302 1.137137,-0.714322 1.559952,-1.168651c0.421502,-0.455643 0.764219,-0.916538 1.024211,-1.38925c0.261305,-0.474026 0.437259,-0.869266 0.534428,-1.197539l0,-5.118429c-1.884286,0 -3.425855,0.098482 -4.629959,0.291506c-1.204105,0.195651 -2.145591,0.50554 -2.824459,0.927042c-0.68412,0.421502 -1.156833,0.95593 -1.414199,1.587527c-0.263931,0.631597 -0.391301,1.35511 -0.391301,2.169227c0,1.397129 0.354535,2.47649 1.070169,3.243335c0.714322,0.761593 1.691261,1.143702 2.92688,1.143702" id="svg_5"/>
			<path class="letter" stroke="null" d="m205.608534,22.784935c-0.359787,0.194337 -0.804925,0.59483 -1.340653,1.194913c-0.53968,0.600083 -1.015019,1.485106 -1.437835,2.656383l0,14.475517c0.648667,0.068281 1.297334,0.191711 1.95124,0.367666c0.647354,0.18252 1.294708,0.446451 1.94864,0.804925l0,1.215922l-11.509257,0l0,-1.215922c0.585639,-0.325647 1.141076,-0.571195 1.65976,-0.734018c0.519971,-0.160197 1.041281,-0.308576 1.559939,-0.439886l0,-19.154061l-3.2197,-0.391301l0,-1.26582c1.043907,-0.45433 2.11409,-0.819369 3.2197,-1.096431c1.105636,-0.275749 2.160048,-0.493722 3.168502,-0.659172l1.219862,0l0,5.16964l0.195651,0c0.287554,-0.651293 0.701178,-1.301273 1.240858,-1.951253c0.534441,-0.64998 1.154207,-1.234306 1.852772,-1.752977c0.694625,-0.518671 1.46147,-0.919164 2.290031,-1.194913c0.827247,-0.278375 1.678131,-0.367666 2.559228,-0.269184c0.224539,0.422815 0.429381,0.886337 0.610587,1.387937c0.17858,0.50554 0.349282,1.036029 0.510792,1.586214l0,1.268446l-6.480105,0l0,-0.002626l-0.000013,0z" id="svg_6"/>
			<path class="letter" stroke="null" d="m227.057891,19.129289l9.405672,0l0,1.267133c-0.617153,0.261305 -1.222488,0.487157 -1.825197,0.682807c-0.602709,0.195651 -1.22774,0.358474 -1.880347,0.487157c-0.484531,0.651293 -1.046534,1.349858 -1.679444,2.097007c-0.630284,0.748462 -1.272385,1.495611 -1.924992,2.24276c-0.64998,0.747149 -1.273698,1.447026 -1.87772,2.097007c-0.602709,0.64998 -1.116127,1.185721 -1.53763,1.607224c0.491096,0.64998 1.080674,1.439148 1.780552,2.364877c0.695938,0.927042 1.450966,1.913174 2.265082,2.951829c0.81149,1.039968 1.649242,2.093067 2.513256,3.167176c0.857449,1.068856 1.714897,2.079936 2.559215,3.022736l2.72729,1.171277l0,1.215922l-6.045472,0l-1.310465,-1.167338c-1.724089,-2.146904 -3.155358,-4.052199 -4.291182,-5.727704c-1.137137,-1.672878 -2.178418,-3.242022 -3.125157,-4.706119l-1.60591,-0.484531l0,9.699804c1.070169,0.191711 2.124581,0.584326 3.169789,1.171277l0,1.215922l-10.773913,0l0,-1.215922c1.070169,-0.517358 2.145591,-0.909972 3.214447,-1.171277l0,-30.857642l-3.70423,-0.392614l0,-1.267133c0.911285,-0.421502 1.997212,-0.761593 3.268284,-1.021585c1.267146,-0.262618 2.468611,-0.50554 3.607061,-0.734018l1.218549,0l0,23.302116l1.267133,0c0.519984,-0.580386 1.089866,-1.234306 1.708332,-1.947314c0.618466,-0.715635 1.232993,-1.454905 1.851459,-2.220437c0.619779,-0.762906 1.219862,-1.519246 1.800248,-2.265082c0.586952,-0.747149 1.122693,-1.46147 1.611163,-2.146904c-0.812803,-0.225852 -1.611163,-0.617153 -2.3872,-1.169964l0,-1.268446l0.001313,0l0.000013,0z" id="svg_7"/>
			<path class="letter" stroke="null" d="m258.745407,40.090164c-0.262618,0.554124 -0.667063,1.074109 -1.219862,1.559952c-0.555438,0.487157 -1.188347,0.908659 -1.902682,1.269759c-0.715622,0.355848 -1.494298,0.639475 -2.338615,0.850883c-0.846944,0.210095 -1.705705,0.316455 -2.584163,0.316455c-1.913161,0 -3.607048,-0.300698 -5.068532,-0.903407c-1.46147,-0.597456 -2.681332,-1.462784 -3.656959,-2.58285c-0.973001,-1.12138 -1.717523,-2.462046 -2.216498,-4.021998c-0.505527,-1.557326 -0.758967,-3.312929 -0.758967,-5.264182c0,-4.159873 0.961183,-7.327049 2.87567,-9.50678c1.918439,-2.175792 4.631273,-3.268284 8.145104,-3.268284c1.135837,0 2.258517,0.154945 3.3602,0.463521c1.105636,0.30989 2.090454,0.821995 2.950516,1.536317c0.861388,0.714322 1.559952,1.666313 2.09832,2.852034c0.535741,1.187034 0.800999,2.657697 0.800999,4.410673c0,0.554124 -0.023636,1.116127 -0.069594,1.683383c-0.051211,0.568568 -0.141814,1.17653 -0.270497,1.829136l-15.209535,0c0,1.364302 0.169389,2.638 0.514732,3.825035c0.338778,1.189661 0.84957,2.217811 1.535004,3.097582c0.680181,0.877145 1.542882,1.566518 2.581537,2.070745c1.041281,0.504227 2.261143,0.755027 3.658272,0.755027c1.135824,0 2.290031,-0.164136 3.461308,-0.48847c1.169964,-0.32302 2.045796,-0.744523 2.630122,-1.263194l0.68412,0.778663zm-8.921154,-19.402235c-1.852772,0 -3.264331,0.626344 -4.243911,1.87772c-0.971687,1.251376 -1.558639,3.452117 -1.75429,6.606162l10.725329,0c0.031514,-0.294132 0.056463,-0.579073 0.076159,-0.854822c0.018383,-0.273123 0.026262,-0.544933 0.026262,-0.803612c0,-2.078623 -0.392614,-3.737057 -1.173903,-4.972676c-0.781289,-1.232993 -1.998525,-1.852772 -3.655646,-1.852772" id="svg_8"/>
			<path class="letter" stroke="null" d="m279.707594,38.675964c-0.165449,0.715635 -0.437259,1.395816 -0.829874,2.047109c-0.391314,0.652606 -0.871893,1.229053 -1.437835,1.731967c-0.571195,0.504227 -1.219862,0.902094 -1.94864,1.194913c-0.731379,0.291506 -1.52186,0.437259 -2.366177,0.437259c-3.215773,0 -5.622669,-1.021585 -7.211497,-3.07132c-1.595406,-2.047109 -2.392452,-5.232668 -2.392452,-9.554051c0,-4.15856 1.015019,-7.328362 3.047685,-9.505467c2.030026,-2.178418 4.767834,-3.266971 8.213385,-3.266971c1.204105,0 2.145578,0.057776 2.829711,0.172015c0.680181,0.112926 1.429956,0.317768 2.241433,0.607961l0,-9.212648l-3.706856,-0.389988l0,-1.269759c0.944113,-0.388675 2.039231,-0.728766 3.290606,-1.020272c1.255315,-0.292819 2.444976,-0.537054 3.583439,-0.734018l1.218535,0l0,33.880378l3.218386,0.389988l0,1.024211c-0.944113,0.458269 -1.918426,0.844318 -2.925567,1.17259c-1.009767,0.324334 -1.997212,0.551498 -2.974151,0.681494l-1.221175,0l-0.435946,-5.31408l-0.193011,0l0,-0.001313zm-5.609525,2.389826c1.594093,0 2.861226,-0.502914 3.802712,-1.510055c0.949365,-1.008454 1.596719,-2.372756 1.952553,-4.095531l0,-13.748064c-0.554124,-0.324334 -1.202792,-0.552811 -1.952553,-0.681494c-0.747149,-0.131309 -1.703079,-0.195651 -2.874357,-0.195651c-2.208619,0 -3.899881,0.966435 -5.068545,2.901931c-1.169951,1.931557 -1.75559,4.507842 -1.75559,7.724915c0,1.332788 0.114226,2.576285 0.341391,3.729179c0.227165,1.15552 0.588278,2.169227 1.074122,3.048998c0.483218,0.877145 1.093805,1.566518 1.825184,2.070745c0.731392,0.504227 1.616415,0.755027 2.65507,0.755027" id="svg_9"/>
			<path class="letter" stroke="null" d="m292.037507,40.724387c0,-0.973001 0.30859,-1.75429 0.925742,-2.337302c0.617153,-0.585639 1.415512,-0.879771 2.392452,-0.879771c1.004502,0 1.816005,0.294132 2.434471,0.879771c0.614527,0.583012 0.927042,1.364302 0.927042,2.337302c0,0.945426 -0.312516,1.708332 -0.927042,2.292657c-0.619779,0.580386 -1.431269,0.875832 -2.434471,0.875832c-0.97694,0 -1.776625,-0.295446 -2.392452,-0.875832c-0.61584,-0.584326 -0.925742,-1.348545 -0.925742,-2.292657" id="svg_10"/>
			<path class="orange_stroke" stroke="null" fill="#F47824" d="m49.869357,22.619486c-1.974876,0 -3.576847,1.600658 -3.576847,3.57686c0,0.833813 0.298059,1.590153 0.778663,2.198115l-8.114903,13.683723c-0.307263,-0.086664 -0.625031,-0.149692 -0.95987,-0.149692c-1.096431,0 -2.064179,0.504227 -2.718099,1.28289l-12.889303,-7.26796c0.002613,-0.057776 0.01837,-0.10636 0.01837,-0.164136c0,-1.973576 -1.604597,-3.578173 -3.57686,-3.578173c-1.976189,0 -3.57816,1.604597 -3.57816,3.578173c0,0.496348 0.102408,0.971687 0.287554,1.401068l-9.614453,9.896768c-0.428068,-0.179893 -0.902094,-0.282315 -1.399755,-0.282315c-1.973576,0 -3.57686,1.600658 -3.57686,3.572921c0,1.978828 1.603284,3.57686 3.57686,3.57686c1.976202,0 3.578173,-1.598032 3.578173,-3.57686c0,-0.530489 -0.126057,-1.033403 -0.334838,-1.487732l9.572435,-9.857375c0.455643,0.207468 0.957243,0.332212 1.490358,0.332212c0.983505,0 1.87772,-0.397867 2.522461,-1.039968l13.08758,7.379572c0.098482,1.884286 1.646616,3.387775 3.557164,3.387775c1.976202,0 3.57686,-1.603284 3.57686,-3.57686c0,-0.690686 -0.206155,-1.330161 -0.542307,-1.875094l8.251465,-13.921392c0.190398,0.032827 0.386049,0.063028 0.586952,0.063028c1.976202,0 3.57686,-1.603284 3.57686,-3.578173c-0.003939,-1.973576 -1.603284,-3.574234 -3.579486,-3.574234" id="svg_11"/>
			<path class="green_stroke" stroke="null" fill="#5FB99B" d="m49.869357,1.16095c-1.974876,0 -3.576847,1.603284 -3.576847,3.57686c0,0.8325 0.295446,1.58884 0.773398,2.196802l-12.088304,20.331904c-0.228478,-0.043332 -0.460895,-0.069594 -0.698564,-0.069594c-0.706443,0 -1.357736,0.208781 -1.911861,0.562003l-7.942888,-7.505629c0.170702,-0.41625 0.267871,-0.873206 0.267871,-1.35511c0,-1.973576 -1.599345,-3.574234 -3.574234,-3.574234c-1.976202,0 -3.57686,1.600658 -3.57686,3.574234c0,0.223225 0.026249,0.437259 0.064328,0.647354l-10.51916,6.45253c-0.64998,-0.668363 -1.556013,-1.091179 -2.563154,-1.091179c-1.973576,0 -3.57686,1.603284 -3.57686,3.578173c0,1.972263 1.603284,3.575547 3.57686,3.575547c1.976202,0 3.578173,-1.603284 3.578173,-3.575547c0,-0.027575 -0.007879,-0.05515 -0.007879,-0.082725l10.864516,-6.666564c0.600083,0.458269 1.343292,0.741897 2.160035,0.741897c0.548859,0 1.064917,-0.136561 1.531064,-0.357161l8.184497,7.731481c-0.077472,0.298072 -0.135262,0.601396 -0.135262,0.919164c0,1.978828 1.603297,3.57686 3.579486,3.57686c1.974902,0 3.575547,-1.598032 3.575547,-3.57686c0,-0.791794 -0.266558,-1.521873 -0.707756,-2.11539l12.131649,-20.398871c0.191711,0.030201 0.388675,0.059089 0.590904,0.059089c1.976202,0 3.57686,-1.600658 3.57686,-3.578173c0,-1.973576 -1.599345,-3.57686 -3.575547,-3.57686" id="svg_12"/>
		</g>
	</g>
</svg>